<svg id="visual" viewBox="0 0 1920 1080" width="1920" height="1080" xmlns="http://www.w3.org/2000/svg" xmlns:xlink="http://www.w3.org/1999/xlink" version="1.1"><rect width="1920" height="1080" fill="#001829"></rect><g><g transform="translate(23 218)"><path d="M0 -140L121.2 -70L121.2 70L0 140L-121.2 70L-121.2 -70Z" fill="none" stroke="#f3e9f1" stroke-width="8"></path></g><g transform="translate(520 951)"><path d="M0 -123L106.5 -61.5L106.5 61.5L0 123L-106.5 61.5L-106.5 -61.5Z" fill="none" stroke="#f3e9f1" stroke-width="8"></path></g><g transform="translate(434 461)"><path d="M0 -133L115.2 -66.5L115.2 66.5L0 133L-115.2 66.5L-115.2 -66.5Z" fill="none" stroke="#f3e9f1" stroke-width="8"></path></g><g transform="translate(108 757)"><path d="M0 -104L90.1 -52L90.1 52L0 104L-90.1 52L-90.1 -52Z" stroke="#f3e9f1" fill="none" stroke-width="8"></path></g><g transform="translate(871 17)"><path d="M0 -94L81.4 -47L81.4 47L0 94L-81.4 47L-81.4 -47Z" stroke="#f3e9f1" fill="none" stroke-width="8"></path></g><g transform="translate(1321 698)"><path d="M0 -138L119.5 -69L119.5 69L0 138L-119.5 69L-119.5 -69Z" stroke="#f3e9f1" fill="none" stroke-width="8"></path></g><g transform="translate(1915 5)"><path d="M0 -92L79.7 -46L79.7 46L0 92L-79.7 46L-79.7 -46Z" stroke="#f3e9f1" fill="none" stroke-width="8"></path></g><g transform="translate(1224 92)"><path d="M0 -86L74.5 -43L74.5 43L0 86L-74.5 43L-74.5 -43Z" stroke="#f3e9f1" fill="none" stroke-width="8"></path></g></g></svg>